# xmcd CD database file
#
# Track frame offsets:
#	150
#	10661
#	20141
#	36794
#	61618
#	76165
#	96418
#	102695
#	119003
#	149145
#	153929
#	165414
#
# Disc length: 2474 seconds
#
# Revision: 0
# Processed by: cddbd v1.5.2PL0 Copyright (c) Steve Scherf et al.
# Submitted via: CDex 1.70beta2
#
DISCID=9b09a80c
DTITLE=Krystle Warren - LOVE SONGS: A TIME YOU MAY EMBRACE
DYEAR=2012
DGENRE=Jazz
TTITLE0=Tuesday Morning
TTITLE1=Five Minutes Late
TTITLE2=Forever Is A Long Time
TTITLE3=Every Morning
TTITLE4=You Can Take Me With You
TTITLE5=I Worry Less
TTITLE6=Little Wonder
TTITLE7=The One Who Takes You Home
TTITLE8=Your Many Coloured Days
TTITLE9=Every Other Day
TTITLE10=The Clod And The Pebble
TTITLE11=Love You
EXTD=YEAR: 2012
EXTT0=
EXTT1=
EXTT2=
EXTT3=
EXTT4=
EXTT5=
EXTT6=
EXTT7=
EXTT8=
EXTT9=
EXTT10=
EXTT11=
PLAYORDER=
